<?xml version="1.0" encoding="UTF-8" standalone="no"?>
<!-- Created with Inkscape (http://www.inkscape.org/) -->

<svg
   width="210mm"
   height="297mm"
   viewBox="0 0 210 297"
   version="1.1"
   id="svg5"
   inkscape:version="1.1.2 (0a00cf5339, 2022-02-04)"
   sodipodi:docname="js.svg"
   xmlns:inkscape="http://www.inkscape.org/namespaces/inkscape"
   xmlns:sodipodi="http://sodipodi.sourceforge.net/DTD/sodipodi-0.dtd"
   xmlns="http://www.w3.org/2000/svg"
   xmlns:svg="http://www.w3.org/2000/svg">
  <sodipodi:namedview
     id="namedview7"
     pagecolor="#ffffff"
     bordercolor="#666666"
     borderopacity="1.0"
     inkscape:pageshadow="2"
     inkscape:pageopacity="0.0"
     inkscape:pagecheckerboard="0"
     inkscape:document-units="mm"
     showgrid="false"
     inkscape:zoom="1.096075"
     inkscape:cx="149.62479"
     inkscape:cy="200.26001"
     inkscape:window-width="1488"
     inkscape:window-height="752"
     inkscape:window-x="282"
     inkscape:window-y="143"
     inkscape:window-maximized="0"
     inkscape:current-layer="layer1" />
  <defs
     id="defs2" />
  <g
     inkscape:label="Layer 1"
     inkscape:groupmode="layer"
     id="layer1">
    <g
       id="g7154"
       transform="matrix(1.1784831,0,0,1.0611794,-45.736608,-31.708354)"
       inkscape:export-filename="/home/wagner/g7154.png"
       inkscape:export-xdpi="95.999992"
       inkscape:export-ydpi="95.999992">
      <rect
         style="fill:#f7de1f;fill-opacity:1;stroke:none;stroke-width:1.365;stroke-linecap:round"
         id="rect858"
         width="28.288485"
         height="31.415518"
         x="41.679646"
         y="31.546932" />
      <rect
         style="fill:#ffffff;fill-opacity:1;stroke:none;stroke-width:1.10864;stroke-linecap:round"
         id="rect7069"
         width="17.757507"
         height="17.757486"
         x="49.708447"
         y="42.519413" />
      <path
         style="fill:#000000;stroke-width:0.0480581"
         d="m 49.740615,60.269017 c -0.01769,-0.01769 -0.03217,-4.01859 -0.03217,-8.890886 v -8.858718 h 8.890884 8.890883 l -0.01213,8.878743 -0.01213,8.878742 -8.846576,0.01213 c -4.865617,0.0067 -8.861051,-0.0023 -8.878742,-0.02002 z M 64.17395,58.808796 c 0.145377,-0.03072 0.438158,-0.136533 0.650626,-0.23514 0.97795,-0.453867 1.433619,-1.416059 1.219398,-2.574882 -0.116943,-0.632603 -0.567592,-1.212638 -1.254946,-1.615251 -0.192917,-0.113 -0.685837,-0.353918 -1.095379,-0.535372 -0.798023,-0.353574 -1.012954,-0.488275 -1.157588,-0.725469 -0.192704,-0.316028 -0.07278,-0.803691 0.237033,-0.963902 0.500248,-0.25869 1.179593,-0.0286 1.44525,0.489499 0.04832,0.09424 0.06991,0.101195 0.161871,0.05217 0.287875,-0.153471 1.187422,-0.770341 1.187422,-0.814281 0,-0.09616 -0.284698,-0.463015 -0.540876,-0.696967 -0.483879,-0.441901 -0.95071,-0.596019 -1.805365,-0.596019 -0.982308,0 -1.653299,0.31325 -2.08907,0.975275 -0.253067,0.384461 -0.342057,0.706385 -0.341505,1.235399 0.0013,1.181048 0.546294,1.8653 1.989442,2.49749 1.243484,0.544722 1.492309,0.711171 1.5866,1.061336 0.05711,0.212102 0.0075,0.473554 -0.125962,0.663419 -0.145391,0.206883 -0.524361,0.342282 -0.959479,0.342809 -0.625453,7.27e-4 -1.008059,-0.182117 -1.408331,-0.67314 -0.118149,-0.144939 -0.241296,-0.263524 -0.27366,-0.263524 -0.07649,0 -1.314541,0.710181 -1.316612,0.755247 -0.0034,0.07445 0.300177,0.503805 0.515727,0.729362 0.433799,0.453938 1.073893,0.784085 1.780202,0.918191 0.410149,0.07787 1.16094,0.06552 1.595202,-0.02625 z m -6.652865,-0.0021 c 0.678034,-0.124728 1.280189,-0.549208 1.557014,-1.097594 0.286637,-0.567827 0.288547,-0.594099 0.289326,-3.980155 l 7.09e-4,-3.087736 h -0.839652 -0.839651 l -0.01338,3.063707 c -0.01255,2.872808 -0.01894,3.074889 -0.102599,3.243166 -0.217393,0.437282 -0.87866,0.543233 -1.345452,0.215573 -0.07541,-0.05293 -0.213733,-0.217531 -0.307394,-0.365779 -0.09366,-0.148251 -0.176646,-0.277258 -0.18441,-0.286687 -0.01203,-0.0146 -1.299742,0.735405 -1.364066,0.794482 -0.05732,0.05265 0.245388,0.50293 0.531331,0.790356 0.344997,0.346787 0.743333,0.569612 1.228003,0.686931 0.343978,0.08326 1.005255,0.09455 1.39022,0.02374 z"
         id="path6688" />
    </g>
  </g>
</svg>
